
<global>
amp_veltrack=0
ampeg_release=0.8
</global>

<group>
group_label=Group_0-42
xf_cccurve=gain
xfin_hicc1=42
xfout_hicc1=84
xfout_locc1=43

<region>
hikey=B2
hivel=127
lokey=A#2
lovel=1
pitch_keycenter=A#2
sample=3Trombones_marcato_half_PP_A#2.opus
</region>

<region>
hikey=B3
hivel=127
lokey=A#3
lovel=1
offset=983
pitch_keycenter=A#3
sample=3Trombones_marcato_half_PP_A#3.opus
</region>

<region>
hivel=127
key=A#4
lovel=1
offset=412
sample=3Trombones_marcato_half_PP_A#4.opus
</region>

<region>
hikey=C#3
hivel=127
lokey=C3
lovel=1
pitch_keycenter=C3
sample=3Trombones_marcato_half_PP_C3.opus
</region>

<region>
hikey=C#4
hivel=127
lokey=C4
lovel=1
offset=447
sample=3Trombones_marcato_half_PP_C4.opus
</region>

<region>
hikey=D#3
hivel=127
lokey=D3
lovel=1
offset=1927
pitch_keycenter=D3
sample=3Trombones_marcato_half_PP_D3.opus
</region>

<region>
hikey=D#4
hivel=127
lokey=D4
lovel=1
offset=675
pitch_keycenter=D4
sample=3Trombones_marcato_half_PP_D4.opus
</region>

<region>
hikey=F2
hivel=127
lokey=E2
lovel=1
pitch_keycenter=E2
sample=3Trombones_marcato_half_PP_E2.opus
</region>

<region>
hikey=F3
hivel=127
lokey=E3
lovel=1
offset=266
pitch_keycenter=E3
sample=3Trombones_marcato_half_PP_E3.opus
</region>

<region>
hikey=F4
hivel=127
lokey=E4
lovel=1
offset=119
pitch_keycenter=E4
sample=3Trombones_marcato_half_PP_E4.opus
</region>

<region>
hikey=G2
hivel=127
lokey=F#2
lovel=1
offset=499
pitch_keycenter=F#2
sample=3Trombones_marcato_half_PP_F#2.opus
</region>

<region>
hikey=G3
hivel=127
lokey=F#3
lovel=1
offset=611
pitch_keycenter=F#3
sample=3Trombones_marcato_half_PP_F#3.opus
</region>

<region>
hikey=G4
hivel=127
lokey=F#4
lovel=1
offset=1253
pitch_keycenter=F#4
sample=3Trombones_marcato_half_PP_F#4.opus
</region>

<region>
hikey=A2
hivel=127
lokey=G#2
lovel=1
pitch_keycenter=G#2
sample=3Trombones_marcato_half_PP_G#2.opus
</region>

<region>
hikey=A3
hivel=127
lokey=G#3
lovel=1
offset=934
pitch_keycenter=G#3
sample=3Trombones_marcato_half_PP_G#3.opus
</region>

<region>
hikey=A4
hivel=127
lokey=G#4
lovel=1
offset=1242
pitch_keycenter=G#4
sample=3Trombones_marcato_half_PP_G#4.opus
</region>
</group>

<group>
group_label=Group_43-86
xf_cccurve=gain
xfin_hicc1=84
xfin_locc1=43
xfout_hicc1=127
xfout_locc1=85

<region>
hikey=B2
hivel=127
lokey=A#2
lovel=1
offset=1938
pitch_keycenter=A#2
sample=3Trombones_marcato_half_MF_A#2.opus
</region>

<region>
hikey=B3
hivel=127
lokey=A#3
lovel=1
offset=1574
pitch_keycenter=A#3
sample=3Trombones_marcato_half_MF_A#3.opus
</region>

<region>
hivel=127
key=A#4
lovel=1
offset=2202
sample=3Trombones_marcato_half_MF_A#4.opus
</region>

<region>
hikey=C#3
hivel=127
lokey=C3
lovel=1
pitch_keycenter=C3
sample=3Trombones_marcato_half_MF_C3.opus
</region>

<region>
hikey=C#4
hivel=127
lokey=C4
lovel=1
offset=279
sample=3Trombones_marcato_half_MF_C4.opus
</region>

<region>
hikey=D#3
hivel=127
lokey=D3
lovel=1
offset=529
pitch_keycenter=D3
sample=3Trombones_marcato_half_MF_D3.opus
</region>

<region>
hikey=D#4
hivel=127
lokey=D4
lovel=1
offset=695
pitch_keycenter=D4
sample=3Trombones_marcato_half_MF_D4.opus
</region>

<region>
hikey=F2
hivel=127
lokey=E2
lovel=1
offset=1165
pitch_keycenter=E2
sample=3Trombones_marcato_half_MF_E2.opus
</region>

<region>
hikey=F3
hivel=127
lokey=E3
lovel=1
offset=856
pitch_keycenter=E3
sample=3Trombones_marcato_half_MF_E3.opus
</region>

<region>
hikey=F4
hivel=127
lokey=E4
lovel=1
offset=743
pitch_keycenter=E4
sample=3Trombones_marcato_half_MF_E4.opus
</region>

<region>
hikey=G2
hivel=127
lokey=F#2
lovel=1
offset=778
pitch_keycenter=F#2
sample=3Trombones_marcato_half_MF_F#2.opus
</region>

<region>
hikey=G3
hivel=127
lokey=F#3
lovel=1
offset=548
pitch_keycenter=F#3
sample=3Trombones_marcato_half_MF_F#3.opus
</region>

<region>
hikey=G4
hivel=127
lokey=F#4
lovel=1
offset=394
pitch_keycenter=F#4
sample=3Trombones_marcato_half_MF_F#4.opus
</region>

<region>
hikey=A2
hivel=127
lokey=G#2
lovel=1
pitch_keycenter=G#2
sample=3Trombones_marcato_half_MF_G#2.opus
</region>

<region>
hikey=A3
hivel=127
lokey=G#3
lovel=1
offset=674
pitch_keycenter=G#3
sample=3Trombones_marcato_half_MF_G#3.opus
</region>

<region>
hikey=A4
hivel=127
lokey=G#4
lovel=1
offset=350
pitch_keycenter=G#4
sample=3Trombones_marcato_half_MF_G#4.opus
</region>
</group>

<group>
group_label=Group_87-127
xf_cccurve=gain
xfin_hicc1=127
xfin_locc1=85
xfout_hicc1=127
xfout_locc1=127

<region>
hikey=B2
hivel=127
lokey=A#2
lovel=1
offset=354
pitch_keycenter=A#2
sample=3Trombones_marcato_half_FF_A#2.opus
</region>

<region>
hikey=B3
hivel=127
lokey=A#3
lovel=1
offset=348
pitch_keycenter=A#3
sample=3Trombones_marcato_half_FF_A#3.opus
</region>

<region>
hivel=127
key=A#4
lovel=1
offset=519
sample=3Trombones_marcato_half_FF_A#4.opus
</region>

<region>
hikey=C#3
hivel=127
lokey=C3
lovel=1
offset=720
pitch_keycenter=C3
sample=3Trombones_marcato_half_FF_C3.opus
</region>

<region>
hikey=C#4
hivel=127
lokey=C4
lovel=1
offset=289
sample=3Trombones_marcato_half_FF_C4.opus
</region>

<region>
hikey=D#3
hivel=127
lokey=D3
lovel=1
offset=441
pitch_keycenter=D3
sample=3Trombones_marcato_half_FF_D3.opus
</region>

<region>
hikey=D#4
hivel=127
lokey=D4
lovel=1
offset=911
pitch_keycenter=D4
sample=3Trombones_marcato_half_FF_D4.opus
</region>

<region>
hikey=F2
hivel=127
lokey=E2
lovel=1
offset=1882
pitch_keycenter=E2
sample=3Trombones_marcato_half_FF_E2.opus
</region>

<region>
hikey=F3
hivel=127
lokey=E3
lovel=1
offset=583
pitch_keycenter=E3
sample=3Trombones_marcato_half_FF_E3.opus
</region>

<region>
hikey=F4
hivel=127
lokey=E4
lovel=1
offset=565
pitch_keycenter=E4
sample=3Trombones_marcato_half_FF_E4.opus
</region>

<region>
hikey=G2
hivel=127
lokey=F#2
lovel=1
offset=95
pitch_keycenter=F#2
sample=3Trombones_marcato_half_FF_F#2.opus
</region>

<region>
hikey=G3
hivel=127
lokey=F#3
lovel=1
offset=568
pitch_keycenter=F#3
sample=3Trombones_marcato_half_FF_F#3.opus
</region>

<region>
hikey=G4
hivel=127
lokey=F#4
lovel=1
offset=452
pitch_keycenter=F#4
sample=3Trombones_marcato_half_FF_F#4.opus
</region>

<region>
hikey=A2
hivel=127
lokey=G#2
lovel=1
offset=446
pitch_keycenter=G#2
sample=3Trombones_marcato_half_FF_G#2.opus
</region>

<region>
hikey=A3
hivel=127
lokey=G#3
lovel=1
offset=417
pitch_keycenter=G#3
sample=3Trombones_marcato_half_FF_G#3.opus
</region>

<region>
hikey=A4
hivel=127
lokey=G#4
lovel=1
offset=442
pitch_keycenter=G#4
sample=3Trombones_marcato_half_FF_G#4.opus
</region>
</group>